# xmcd CD database file
#
# Track frame offsets:
#	150
#	24367
#	43847
#	70560
#	93912
#	117572
#	145410
#	166617
#	184282
#	208805
#
# Disc length: 3108 seconds
#
# Revision: 0
# Processed by: cddbd v1.5.1PL0 Copyright (c) Steve Scherf et al.
# Submitted via: CDex 1.51
#
DISCID=890c220a
DTITLE=Manhattan Winds - Smooth Operator
DYEAR=1993
DGENRE=Jazz
TTITLE0=Love is stronger than pride
TTITLE1=Is it a crime?
TTITLE2=Smooth operator
TTITLE3=Paradise
TTITLE4=No ordinary love
TTITLE5=Cherish the day
TTITLE6=War of the hearts
TTITLE7=Pearls
TTITLE8=The sweetest taboo
TTITLE9=Kiss of life
EXTD=YEAR: 1993
EXTT0=
EXTT1=
EXTT2=
EXTT3=
EXTT4=
EXTT5=
EXTT6=
EXTT7=
EXTT8=
EXTT9=
PLAYORDER=
